<mxfile host="app.diagrams.net" modified="2024-05-24T13:43:25.488Z" agent="Mozilla/5.0 (Macintosh; Intel Mac OS X 10_15_7) AppleWebKit/537.36 (KHTML, like Gecko) Chrome/124.0.0.0 Safari/537.36" etag="wrPLFxoG8R0M3efBC8E1" version="24.4.8" type="device">
  <diagram name="Page-1" id="5f0bae14-7c28-e335-631c-24af17079c00">
    <mxGraphModel dx="4649" dy="3096" grid="1" gridSize="10" guides="1" tooltips="1" connect="1" arrows="1" fold="1" page="1" pageScale="1" pageWidth="1100" pageHeight="850" background="none" math="0" shadow="0">
      <root>
        <mxCell id="0" />
        <mxCell id="1" parent="0" />
        <mxCell id="kU4XPEqVEIPAouxoqwvd-76" value="" style="group" vertex="1" connectable="0" parent="1">
          <mxGeometry x="-1010" y="-230" width="920" height="980" as="geometry" />
        </mxCell>
        <mxCell id="kU4XPEqVEIPAouxoqwvd-2" value="" style="group" vertex="1" connectable="0" parent="kU4XPEqVEIPAouxoqwvd-76">
          <mxGeometry x="540" y="330" width="300" height="200" as="geometry" />
        </mxCell>
        <mxCell id="39150e848f15840c-1" value="APIs Module" style="verticalAlign=top;align=center;spacingTop=8;spacingLeft=2;spacingRight=12;shape=cube;size=10;direction=south;fontStyle=4;html=1;rounded=0;shadow=0;comic=0;labelBackgroundColor=none;strokeWidth=1;fontFamily=Verdana;fontSize=12" parent="kU4XPEqVEIPAouxoqwvd-2" vertex="1">
          <mxGeometry width="300" height="200" as="geometry" />
        </mxCell>
        <mxCell id="39150e848f15840c-5" value="Auth API" style="shape=component;align=left;spacingLeft=36;rounded=0;shadow=0;comic=0;labelBackgroundColor=none;strokeWidth=1;fontFamily=Verdana;fontSize=12;html=1;" parent="kU4XPEqVEIPAouxoqwvd-2" vertex="1">
          <mxGeometry x="20" y="40" width="110" height="40" as="geometry" />
        </mxCell>
        <mxCell id="d-YfphxyM37iJX7y1zu0-2" value="Entry API" style="shape=component;align=left;spacingLeft=36;rounded=0;shadow=0;comic=0;labelBackgroundColor=none;strokeWidth=1;fontFamily=Verdana;fontSize=12;html=1;" parent="kU4XPEqVEIPAouxoqwvd-2" vertex="1">
          <mxGeometry x="20" y="90" width="110" height="40" as="geometry" />
        </mxCell>
        <mxCell id="d-YfphxyM37iJX7y1zu0-3" value="User API" style="shape=component;align=left;spacingLeft=36;rounded=0;shadow=0;comic=0;labelBackgroundColor=none;strokeWidth=1;fontFamily=Verdana;fontSize=12;html=1;" parent="kU4XPEqVEIPAouxoqwvd-2" vertex="1">
          <mxGeometry x="20" y="140" width="110" height="40" as="geometry" />
        </mxCell>
        <mxCell id="d-YfphxyM37iJX7y1zu0-4" value="Inference API" style="shape=component;align=left;spacingLeft=36;rounded=0;shadow=0;comic=0;labelBackgroundColor=none;strokeWidth=1;fontFamily=Verdana;fontSize=12;html=1;" parent="kU4XPEqVEIPAouxoqwvd-2" vertex="1">
          <mxGeometry x="150" y="60" width="130" height="40" as="geometry" />
        </mxCell>
        <mxCell id="d-YfphxyM37iJX7y1zu0-5" value="Payment API" style="shape=component;align=left;spacingLeft=36;rounded=0;shadow=0;comic=0;labelBackgroundColor=none;strokeWidth=1;fontFamily=Verdana;fontSize=12;html=1;" parent="kU4XPEqVEIPAouxoqwvd-2" vertex="1">
          <mxGeometry x="150" y="120" width="130" height="40" as="geometry" />
        </mxCell>
        <mxCell id="kU4XPEqVEIPAouxoqwvd-3" value="" style="group" vertex="1" connectable="0" parent="kU4XPEqVEIPAouxoqwvd-76">
          <mxGeometry x="600" y="615" width="170" height="100" as="geometry" />
        </mxCell>
        <mxCell id="d-YfphxyM37iJX7y1zu0-26" value="Models Module" style="verticalAlign=top;align=center;spacingTop=8;spacingLeft=2;spacingRight=12;shape=cube;size=10;direction=south;fontStyle=4;html=1;rounded=0;shadow=0;comic=0;labelBackgroundColor=none;strokeWidth=1;fontFamily=Verdana;fontSize=12" parent="kU4XPEqVEIPAouxoqwvd-3" vertex="1">
          <mxGeometry width="170" height="100" as="geometry" />
        </mxCell>
        <mxCell id="d-YfphxyM37iJX7y1zu0-27" value="API Models" style="shape=component;align=left;spacingLeft=36;rounded=0;shadow=0;comic=0;labelBackgroundColor=none;strokeWidth=1;fontFamily=Verdana;fontSize=12;html=1;" parent="kU4XPEqVEIPAouxoqwvd-3" vertex="1">
          <mxGeometry x="10" y="40" width="130" height="40" as="geometry" />
        </mxCell>
        <mxCell id="kU4XPEqVEIPAouxoqwvd-23" value="" style="group" vertex="1" connectable="0" parent="kU4XPEqVEIPAouxoqwvd-76">
          <mxGeometry x="510" width="390" height="260" as="geometry" />
        </mxCell>
        <mxCell id="kU4XPEqVEIPAouxoqwvd-15" value="Schemas Module" style="verticalAlign=top;align=center;spacingTop=8;spacingLeft=2;spacingRight=12;shape=cube;size=10;direction=south;fontStyle=4;html=1;rounded=0;shadow=0;comic=0;labelBackgroundColor=none;strokeWidth=1;fontFamily=Verdana;fontSize=12" vertex="1" parent="kU4XPEqVEIPAouxoqwvd-23">
          <mxGeometry width="390" height="260" as="geometry" />
        </mxCell>
        <mxCell id="kU4XPEqVEIPAouxoqwvd-16" value="Auth Schema" style="shape=component;align=left;spacingLeft=36;rounded=0;shadow=0;comic=0;labelBackgroundColor=none;strokeWidth=1;fontFamily=Verdana;fontSize=12;html=1;" vertex="1" parent="kU4XPEqVEIPAouxoqwvd-23">
          <mxGeometry x="14.586666666666645" y="40" width="140.83333333333331" height="40" as="geometry" />
        </mxCell>
        <mxCell id="kU4XPEqVEIPAouxoqwvd-17" value="Entry Schema" style="shape=component;align=left;spacingLeft=36;rounded=0;shadow=0;comic=0;labelBackgroundColor=none;strokeWidth=1;fontFamily=Verdana;fontSize=12;html=1;" vertex="1" parent="kU4XPEqVEIPAouxoqwvd-23">
          <mxGeometry x="14.586666666666645" y="90" width="140.83333333333331" height="40" as="geometry" />
        </mxCell>
        <mxCell id="kU4XPEqVEIPAouxoqwvd-18" value="User Schema" style="shape=component;align=left;spacingLeft=36;rounded=0;shadow=0;comic=0;labelBackgroundColor=none;strokeWidth=1;fontFamily=Verdana;fontSize=12;html=1;" vertex="1" parent="kU4XPEqVEIPAouxoqwvd-23">
          <mxGeometry x="14.586666666666645" y="140" width="140.83333333333331" height="40" as="geometry" />
        </mxCell>
        <mxCell id="kU4XPEqVEIPAouxoqwvd-19" value="JWT Schema" style="shape=component;align=left;spacingLeft=36;rounded=0;shadow=0;comic=0;labelBackgroundColor=none;strokeWidth=1;fontFamily=Verdana;fontSize=12;html=1;" vertex="1" parent="kU4XPEqVEIPAouxoqwvd-23">
          <mxGeometry x="194.58333333333331" y="40" width="162.5" height="40" as="geometry" />
        </mxCell>
        <mxCell id="kU4XPEqVEIPAouxoqwvd-20" value="Inference Schema" style="shape=component;align=left;spacingLeft=36;rounded=0;shadow=0;comic=0;labelBackgroundColor=none;strokeWidth=1;fontFamily=Verdana;fontSize=12;html=1;" vertex="1" parent="kU4XPEqVEIPAouxoqwvd-23">
          <mxGeometry x="194.58333333333331" y="90" width="162.5" height="40" as="geometry" />
        </mxCell>
        <mxCell id="kU4XPEqVEIPAouxoqwvd-21" value="Payment Schema" style="shape=component;align=left;spacingLeft=36;rounded=0;shadow=0;comic=0;labelBackgroundColor=none;strokeWidth=1;fontFamily=Verdana;fontSize=12;html=1;" vertex="1" parent="kU4XPEqVEIPAouxoqwvd-23">
          <mxGeometry x="194.58333333333331" y="140" width="162.5" height="40" as="geometry" />
        </mxCell>
        <mxCell id="kU4XPEqVEIPAouxoqwvd-22" value="Errors Schema" style="shape=component;align=left;spacingLeft=36;rounded=0;shadow=0;comic=0;labelBackgroundColor=none;strokeWidth=1;fontFamily=Verdana;fontSize=12;html=1;" vertex="1" parent="kU4XPEqVEIPAouxoqwvd-23">
          <mxGeometry x="114.58666666666664" y="200" width="140.83333333333331" height="40" as="geometry" />
        </mxCell>
        <mxCell id="kU4XPEqVEIPAouxoqwvd-42" value="" style="group" vertex="1" connectable="0" parent="kU4XPEqVEIPAouxoqwvd-76">
          <mxGeometry x="330" y="770" width="430" height="210" as="geometry" />
        </mxCell>
        <mxCell id="d-YfphxyM37iJX7y1zu0-36" value="Tests Module" style="verticalAlign=top;align=center;spacingTop=8;spacingLeft=2;spacingRight=12;shape=cube;size=10;direction=south;fontStyle=4;html=1;rounded=0;shadow=0;comic=0;labelBackgroundColor=none;strokeWidth=1;fontFamily=Verdana;fontSize=12" parent="kU4XPEqVEIPAouxoqwvd-42" vertex="1">
          <mxGeometry width="430" height="210" as="geometry" />
        </mxCell>
        <mxCell id="d-YfphxyM37iJX7y1zu0-41" value="Unit Tests" style="shape=umlFrame;whiteSpace=wrap;html=1;width=100;height=20;" parent="kU4XPEqVEIPAouxoqwvd-42" vertex="1">
          <mxGeometry x="10" y="40" width="180" height="150" as="geometry" />
        </mxCell>
        <mxCell id="d-YfphxyM37iJX7y1zu0-37" value="Repositories Tests" style="shape=component;align=left;spacingLeft=36;rounded=0;shadow=0;comic=0;labelBackgroundColor=none;strokeWidth=1;fontFamily=Verdana;fontSize=12;html=1;" parent="kU4XPEqVEIPAouxoqwvd-42" vertex="1">
          <mxGeometry x="20" y="70" width="150" height="40" as="geometry" />
        </mxCell>
        <mxCell id="d-YfphxyM37iJX7y1zu0-38" value="Services Tests" style="shape=component;align=left;spacingLeft=36;rounded=0;shadow=0;comic=0;labelBackgroundColor=none;strokeWidth=1;fontFamily=Verdana;fontSize=12;html=1;" parent="kU4XPEqVEIPAouxoqwvd-42" vertex="1">
          <mxGeometry x="20" y="130" width="150" height="40" as="geometry" />
        </mxCell>
        <mxCell id="d-YfphxyM37iJX7y1zu0-43" value="Integration Tests" style="shape=umlFrame;whiteSpace=wrap;html=1;width=120;height=20;" parent="kU4XPEqVEIPAouxoqwvd-42" vertex="1">
          <mxGeometry x="220" y="40" width="180" height="150" as="geometry" />
        </mxCell>
        <mxCell id="d-YfphxyM37iJX7y1zu0-44" value="API Endpoints Tests" style="shape=component;align=left;spacingLeft=36;rounded=0;shadow=0;comic=0;labelBackgroundColor=none;strokeWidth=1;fontFamily=Verdana;fontSize=12;html=1;" parent="kU4XPEqVEIPAouxoqwvd-42" vertex="1">
          <mxGeometry x="230" y="70" width="160" height="40" as="geometry" />
        </mxCell>
        <mxCell id="d-YfphxyM37iJX7y1zu0-45" value="Inference Tests" style="shape=component;align=left;spacingLeft=36;rounded=0;shadow=0;comic=0;labelBackgroundColor=none;strokeWidth=1;fontFamily=Verdana;fontSize=12;html=1;" parent="kU4XPEqVEIPAouxoqwvd-42" vertex="1">
          <mxGeometry x="230" y="130" width="160" height="40" as="geometry" />
        </mxCell>
        <mxCell id="kU4XPEqVEIPAouxoqwvd-50" value="" style="group" vertex="1" connectable="0" parent="kU4XPEqVEIPAouxoqwvd-76">
          <mxGeometry x="240" y="590" width="180" height="150" as="geometry" />
        </mxCell>
        <mxCell id="kU4XPEqVEIPAouxoqwvd-45" value="Repositories Module" style="verticalAlign=top;align=center;spacingTop=8;spacingLeft=2;spacingRight=12;shape=cube;size=10;direction=south;fontStyle=4;html=1;rounded=0;shadow=0;comic=0;labelBackgroundColor=none;strokeWidth=1;fontFamily=Verdana;fontSize=12;container=0;" vertex="1" parent="kU4XPEqVEIPAouxoqwvd-50">
          <mxGeometry width="180" height="150" as="geometry" />
        </mxCell>
        <mxCell id="kU4XPEqVEIPAouxoqwvd-46" value="Repositories" style="shape=component;align=left;spacingLeft=36;rounded=0;shadow=0;comic=0;labelBackgroundColor=none;strokeWidth=1;fontFamily=Verdana;fontSize=12;html=1;container=0;" vertex="1" parent="kU4XPEqVEIPAouxoqwvd-50">
          <mxGeometry x="10" y="37.77777777777777" width="140.83333333333331" height="37.77777777777778" as="geometry" />
        </mxCell>
        <mxCell id="kU4XPEqVEIPAouxoqwvd-47" value="Custom Errors" style="shape=component;align=left;spacingLeft=36;rounded=0;shadow=0;comic=0;labelBackgroundColor=none;strokeWidth=1;fontFamily=Verdana;fontSize=12;html=1;container=0;" vertex="1" parent="kU4XPEqVEIPAouxoqwvd-50">
          <mxGeometry x="10" y="94.44444444444446" width="140" height="37.77777777777778" as="geometry" />
        </mxCell>
        <mxCell id="kU4XPEqVEIPAouxoqwvd-51" value="" style="group" vertex="1" connectable="0" parent="kU4XPEqVEIPAouxoqwvd-76">
          <mxGeometry x="250" y="360" width="180" height="160" as="geometry" />
        </mxCell>
        <mxCell id="kU4XPEqVEIPAouxoqwvd-34" value="Services Module" style="verticalAlign=top;align=center;spacingTop=8;spacingLeft=2;spacingRight=12;shape=cube;size=10;direction=south;fontStyle=4;html=1;rounded=0;shadow=0;comic=0;labelBackgroundColor=none;strokeWidth=1;fontFamily=Verdana;fontSize=12;container=0;" vertex="1" parent="kU4XPEqVEIPAouxoqwvd-51">
          <mxGeometry width="180" height="160" as="geometry" />
        </mxCell>
        <mxCell id="kU4XPEqVEIPAouxoqwvd-35" value="Services" style="shape=component;align=left;spacingLeft=36;rounded=0;shadow=0;comic=0;labelBackgroundColor=none;strokeWidth=1;fontFamily=Verdana;fontSize=12;html=1;container=0;" vertex="1" parent="kU4XPEqVEIPAouxoqwvd-51">
          <mxGeometry x="10" y="40" width="140.83333333333331" height="40" as="geometry" />
        </mxCell>
        <mxCell id="kU4XPEqVEIPAouxoqwvd-38" value="Custom Errors" style="shape=component;align=left;spacingLeft=36;rounded=0;shadow=0;comic=0;labelBackgroundColor=none;strokeWidth=1;fontFamily=Verdana;fontSize=12;html=1;container=0;" vertex="1" parent="kU4XPEqVEIPAouxoqwvd-51">
          <mxGeometry x="10" y="100" width="140" height="40" as="geometry" />
        </mxCell>
        <mxCell id="kU4XPEqVEIPAouxoqwvd-52" value="" style="group" vertex="1" connectable="0" parent="kU4XPEqVEIPAouxoqwvd-76">
          <mxGeometry x="260" y="160" width="180" height="150" as="geometry" />
        </mxCell>
        <mxCell id="kU4XPEqVEIPAouxoqwvd-53" value="S3 Module" style="verticalAlign=top;align=center;spacingTop=8;spacingLeft=2;spacingRight=12;shape=cube;size=10;direction=south;fontStyle=4;html=1;rounded=0;shadow=0;comic=0;labelBackgroundColor=none;strokeWidth=1;fontFamily=Verdana;fontSize=12;container=0;" vertex="1" parent="kU4XPEqVEIPAouxoqwvd-52">
          <mxGeometry width="180" height="150" as="geometry" />
        </mxCell>
        <mxCell id="kU4XPEqVEIPAouxoqwvd-54" value="Models" style="shape=component;align=left;spacingLeft=36;rounded=0;shadow=0;comic=0;labelBackgroundColor=none;strokeWidth=1;fontFamily=Verdana;fontSize=12;html=1;container=0;" vertex="1" parent="kU4XPEqVEIPAouxoqwvd-52">
          <mxGeometry x="10" y="37.77777777777777" width="140.83333333333331" height="37.77777777777778" as="geometry" />
        </mxCell>
        <mxCell id="kU4XPEqVEIPAouxoqwvd-55" value="Preprocessors" style="shape=component;align=left;spacingLeft=36;rounded=0;shadow=0;comic=0;labelBackgroundColor=none;strokeWidth=1;fontFamily=Verdana;fontSize=12;html=1;container=0;" vertex="1" parent="kU4XPEqVEIPAouxoqwvd-52">
          <mxGeometry x="10" y="94.44444444444446" width="140" height="37.77777777777778" as="geometry" />
        </mxCell>
        <mxCell id="kU4XPEqVEIPAouxoqwvd-57" style="edgeStyle=orthogonalEdgeStyle;rounded=0;orthogonalLoop=1;jettySize=auto;html=1;exitX=1.002;exitY=0.528;exitDx=0;exitDy=0;exitPerimeter=0;entryX=0;entryY=0;entryDx=0;entryDy=145;entryPerimeter=0;" edge="1" parent="kU4XPEqVEIPAouxoqwvd-76" source="kU4XPEqVEIPAouxoqwvd-15" target="39150e848f15840c-1">
          <mxGeometry relative="1" as="geometry" />
        </mxCell>
        <mxCell id="kU4XPEqVEIPAouxoqwvd-58" style="edgeStyle=orthogonalEdgeStyle;rounded=0;orthogonalLoop=1;jettySize=auto;html=1;exitX=0;exitY=0;exitDx=105;exitDy=300;exitPerimeter=0;entryX=0;entryY=0;entryDx=75;entryDy=0;entryPerimeter=0;" edge="1" parent="kU4XPEqVEIPAouxoqwvd-76" source="39150e848f15840c-1" target="kU4XPEqVEIPAouxoqwvd-34">
          <mxGeometry relative="1" as="geometry" />
        </mxCell>
        <mxCell id="kU4XPEqVEIPAouxoqwvd-59" style="edgeStyle=orthogonalEdgeStyle;rounded=0;orthogonalLoop=1;jettySize=auto;html=1;exitX=0;exitY=0;exitDx=160;exitDy=95;exitPerimeter=0;entryX=0;entryY=0;entryDx=0;entryDy=85;entryPerimeter=0;" edge="1" parent="kU4XPEqVEIPAouxoqwvd-76" source="kU4XPEqVEIPAouxoqwvd-34" target="kU4XPEqVEIPAouxoqwvd-45">
          <mxGeometry relative="1" as="geometry" />
        </mxCell>
        <mxCell id="kU4XPEqVEIPAouxoqwvd-61" style="edgeStyle=orthogonalEdgeStyle;rounded=0;orthogonalLoop=1;jettySize=auto;html=1;exitX=0;exitY=0;exitDx=70;exitDy=0;exitPerimeter=0;entryX=0.45;entryY=1.009;entryDx=0;entryDy=0;entryPerimeter=0;" edge="1" parent="kU4XPEqVEIPAouxoqwvd-76" source="kU4XPEqVEIPAouxoqwvd-45" target="d-YfphxyM37iJX7y1zu0-26">
          <mxGeometry relative="1" as="geometry" />
        </mxCell>
        <mxCell id="kU4XPEqVEIPAouxoqwvd-62" style="edgeStyle=orthogonalEdgeStyle;rounded=0;orthogonalLoop=1;jettySize=auto;html=1;exitX=0;exitY=0;exitDx=200;exitDy=155;exitPerimeter=0;" edge="1" parent="kU4XPEqVEIPAouxoqwvd-76" source="39150e848f15840c-1" target="d-YfphxyM37iJX7y1zu0-26">
          <mxGeometry relative="1" as="geometry">
            <mxPoint x="685" y="610" as="targetPoint" />
          </mxGeometry>
        </mxCell>
        <mxCell id="kU4XPEqVEIPAouxoqwvd-63" style="edgeStyle=orthogonalEdgeStyle;rounded=0;orthogonalLoop=1;jettySize=auto;html=1;exitX=0;exitY=0;exitDx=0;exitDy=85;exitPerimeter=0;entryX=0;entryY=0;entryDx=150;entryDy=95;entryPerimeter=0;" edge="1" parent="kU4XPEqVEIPAouxoqwvd-76" source="kU4XPEqVEIPAouxoqwvd-34" target="kU4XPEqVEIPAouxoqwvd-53">
          <mxGeometry relative="1" as="geometry" />
        </mxCell>
        <mxCell id="kU4XPEqVEIPAouxoqwvd-69" value="" style="group" vertex="1" connectable="0" parent="kU4XPEqVEIPAouxoqwvd-76">
          <mxGeometry y="395" width="180" height="90" as="geometry" />
        </mxCell>
        <mxCell id="kU4XPEqVEIPAouxoqwvd-66" value="Auth Module" style="verticalAlign=top;align=center;spacingTop=8;spacingLeft=2;spacingRight=12;shape=cube;size=10;direction=south;fontStyle=4;html=1;rounded=0;shadow=0;comic=0;labelBackgroundColor=none;strokeWidth=1;fontFamily=Verdana;fontSize=12;container=0;" vertex="1" parent="kU4XPEqVEIPAouxoqwvd-69">
          <mxGeometry width="180" height="90" as="geometry" />
        </mxCell>
        <mxCell id="kU4XPEqVEIPAouxoqwvd-67" value="JWT" style="shape=component;align=left;spacingLeft=36;rounded=0;shadow=0;comic=0;labelBackgroundColor=none;strokeWidth=1;fontFamily=Verdana;fontSize=12;html=1;container=0;" vertex="1" parent="kU4XPEqVEIPAouxoqwvd-69">
          <mxGeometry x="10" y="37.77777777777777" width="140.83333333333331" height="37.77777777777778" as="geometry" />
        </mxCell>
        <mxCell id="kU4XPEqVEIPAouxoqwvd-70" style="edgeStyle=orthogonalEdgeStyle;rounded=0;orthogonalLoop=1;jettySize=auto;html=1;exitX=0;exitY=0;exitDx=85;exitDy=180;exitPerimeter=0;entryX=0.561;entryY=0.008;entryDx=0;entryDy=0;entryPerimeter=0;" edge="1" parent="kU4XPEqVEIPAouxoqwvd-76" source="kU4XPEqVEIPAouxoqwvd-34" target="kU4XPEqVEIPAouxoqwvd-66">
          <mxGeometry relative="1" as="geometry">
            <mxPoint x="150" y="445.5714285714289" as="targetPoint" />
          </mxGeometry>
        </mxCell>
        <mxCell id="kU4XPEqVEIPAouxoqwvd-71" style="edgeStyle=orthogonalEdgeStyle;rounded=0;orthogonalLoop=1;jettySize=auto;html=1;exitX=0;exitY=0;exitDx=100;exitDy=0;exitPerimeter=0;entryX=0;entryY=0;entryDx=95;entryDy=0;entryPerimeter=0;" edge="1" parent="kU4XPEqVEIPAouxoqwvd-76" source="d-YfphxyM37iJX7y1zu0-36" target="39150e848f15840c-1">
          <mxGeometry relative="1" as="geometry" />
        </mxCell>
        <mxCell id="kU4XPEqVEIPAouxoqwvd-72" style="edgeStyle=orthogonalEdgeStyle;rounded=0;orthogonalLoop=1;jettySize=auto;html=1;exitX=0.259;exitY=-0.006;exitDx=0;exitDy=0;exitPerimeter=0;entryX=0;entryY=0;entryDx=125;entryDy=0;entryPerimeter=0;" edge="1" parent="kU4XPEqVEIPAouxoqwvd-76" source="d-YfphxyM37iJX7y1zu0-36" target="kU4XPEqVEIPAouxoqwvd-15">
          <mxGeometry relative="1" as="geometry">
            <mxPoint x="940" y="218.78787878787898" as="targetPoint" />
            <Array as="points">
              <mxPoint x="920" y="824" />
              <mxPoint x="920" y="125" />
            </Array>
          </mxGeometry>
        </mxCell>
        <mxCell id="kU4XPEqVEIPAouxoqwvd-73" style="edgeStyle=orthogonalEdgeStyle;rounded=0;orthogonalLoop=1;jettySize=auto;html=1;exitX=0;exitY=0;exitDx=110;exitDy=430;exitPerimeter=0;entryX=1.009;entryY=0.84;entryDx=0;entryDy=0;entryPerimeter=0;" edge="1" parent="kU4XPEqVEIPAouxoqwvd-76" source="d-YfphxyM37iJX7y1zu0-36" target="kU4XPEqVEIPAouxoqwvd-45">
          <mxGeometry relative="1" as="geometry" />
        </mxCell>
        <mxCell id="kU4XPEqVEIPAouxoqwvd-74" style="edgeStyle=orthogonalEdgeStyle;rounded=0;orthogonalLoop=1;jettySize=auto;html=1;exitX=0.344;exitY=1.007;exitDx=0;exitDy=0;exitPerimeter=0;entryX=0;entryY=0;entryDx=90;entryDy=95;entryPerimeter=0;" edge="1" parent="kU4XPEqVEIPAouxoqwvd-76" source="d-YfphxyM37iJX7y1zu0-36" target="kU4XPEqVEIPAouxoqwvd-66">
          <mxGeometry relative="1" as="geometry" />
        </mxCell>
        <mxCell id="kU4XPEqVEIPAouxoqwvd-75" style="edgeStyle=orthogonalEdgeStyle;rounded=0;orthogonalLoop=1;jettySize=auto;html=1;exitX=0.175;exitY=1.001;exitDx=0;exitDy=0;exitPerimeter=0;entryX=0.793;entryY=1.007;entryDx=0;entryDy=0;entryPerimeter=0;" edge="1" parent="kU4XPEqVEIPAouxoqwvd-76" source="d-YfphxyM37iJX7y1zu0-36" target="kU4XPEqVEIPAouxoqwvd-34">
          <mxGeometry relative="1" as="geometry">
            <Array as="points">
              <mxPoint x="190" y="807" />
              <mxPoint x="190" y="487" />
            </Array>
          </mxGeometry>
        </mxCell>
      </root>
    </mxGraphModel>
  </diagram>
</mxfile>
